<?xml version="1.0" standalone="no"?>
<!DOCTYPE svg PUBLIC "-//W3C//DTD SVG 20010904//EN"
 "http://www.w3.org/TR/2001/REC-SVG-20010904/DTD/svg10.dtd">
<svg version="1.0" xmlns="http://www.w3.org/2000/svg"
 width="1000.000000pt" height="1000.000000pt" viewBox="0 0 1000.000000 1000.000000"
 preserveAspectRatio="xMidYMid meet">

<g transform="translate(0.000000,1000.000000) scale(0.100000,-0.100000)"
fill="#0F2C53" stroke="none">
<path d="M4755 9174 c-235 -34 -375 -69 -537 -138 -352 -147 -638 -400 -829
-731 -132 -230 -212 -489 -240 -780 -16 -165 -6 -437 21 -594 143 -820 751
-1388 1585 -1481 118 -13 351 -13 473 1 234 25 435 83 637 184 410 204 692
538 839 990 14 44 26 83 26 87 0 5 -220 8 -490 8 l-489 0 -42 -72 c-27 -46
-75 -106 -133 -163 -75 -75 -107 -99 -186 -138 -143 -72 -225 -90 -405 -91
-113 -1 -169 4 -230 18 -169 39 -305 116 -424 241 -204 215 -293 493 -278 865
21 497 270 850 676 957 126 34 334 38 454 10 153 -36 281 -103 385 -200 59
-56 129 -149 158 -209 l18 -38 493 0 c281 0 493 4 493 9 0 5 -18 61 -40 126
-208 601 -685 1002 -1335 1121 -86 16 -523 29 -600 18z"/>
<path d="M6360 4170 l0 -330 -105 0 -105 0 0 -145 0 -145 105 0 105 0 0 -527
c0 -572 4 -614 55 -719 31 -64 99 -128 170 -160 91 -42 173 -54 378 -54 l187
0 0 149 0 149 -157 4 c-137 3 -163 6 -193 23 -71 42 -70 29 -70 613 l0 522
210 0 210 0 0 145 0 145 -210 0 -210 0 0 330 0 330 -185 0 -185 0 0 -330z"/>
<path d="M9620 3295 l0 -1205 180 0 180 0 0 1205 0 1205 -180 0 -180 0 0
-1205z"/>
<path d="M958 4315 c-429 -70 -775 -372 -893 -780 -50 -173 -58 -412 -20 -590
52 -247 193 -476 388 -631 98 -78 288 -174 400 -203 230 -59 483 -52 707 20
178 57 362 181 472 319 61 75 158 241 158 269 0 8 -66 11 -214 11 l-213 0 -38
-61 c-153 -249 -484 -348 -811 -245 -326 104 -524 434 -501 836 8 136 36 242
93 360 39 79 61 109 133 180 95 95 173 142 301 182 65 20 95 23 230 23 143 -1
161 -3 234 -28 43 -15 99 -39 123 -54 68 -39 149 -118 194 -189 l42 -64 214 0
214 0 -7 23 c-28 90 -130 241 -227 334 -145 139 -310 227 -517 274 -115 26
-346 33 -462 14z"/>
<path d="M3302 3850 c-131 -35 -254 -118 -330 -225 l-21 -30 -1 123 0 122
-180 0 -180 0 0 -875 0 -875 180 0 180 0 0 518 c0 558 4 601 53 698 66 129
203 192 415 194 l52 0 0 185 0 185 -47 -1 c-27 0 -81 -9 -121 -19z"/>
<path d="M5045 3856 c-274 -54 -455 -212 -488 -428 -21 -137 22 -278 112 -368
97 -97 171 -131 503 -231 306 -91 380 -133 395 -223 20 -123 -80 -217 -249
-235 -223 -24 -371 62 -424 247 -4 15 -359 18 -369 3 -11 -19 24 -152 57 -213
137 -257 485 -395 842 -333 338 59 536 286 495 569 -14 100 -48 168 -122 240
-96 94 -182 134 -485 222 -195 57 -248 77 -305 115 -68 45 -90 86 -85 159 7
104 73 158 216 180 199 31 369 -60 397 -212 l7 -38 179 0 179 0 0 33 c0 18 -7
60 -15 92 -51 199 -199 343 -415 405 -97 28 -321 36 -425 16z"/>
<path d="M8010 3855 c-133 -30 -236 -79 -342 -163 -133 -106 -242 -282 -289
-467 -31 -120 -33 -359 -5 -480 43 -189 138 -360 264 -475 307 -282 789 -279
1082 7 35 35 66 63 67 63 2 0 3 -56 3 -125 l0 -125 180 0 180 0 0 875 0 875
-180 0 -180 0 0 -127 -1 -128 -26 33 c-68 85 -228 187 -353 222 -98 29 -305
36 -400 15z m395 -321 c255 -74 415 -352 376 -656 -39 -303 -245 -499 -526
-500 -347 -2 -591 336 -521 720 33 182 137 327 291 403 44 21 105 43 135 48
68 12 177 5 245 -15z"/>
<path d="M3790 2965 l0 -875 180 0 180 0 0 875 0 875 -180 0 -180 0 0 -875z"/>
<path d="M1590 1035 c0 -193 2 -225 15 -225 12 0 15 18 15 105 l0 105 110 0
c91 0 110 3 110 15 0 12 -19 15 -110 15 l-110 0 0 90 0 90 130 0 c109 0 130 2
130 15 0 13 -23 15 -145 15 l-145 0 0 -225z"/>
<path d="M2435 1228 c-7 -18 -48 -114 -90 -213 -42 -99 -79 -186 -82 -194 -4
-9 0 -12 12 -10 12 3 30 31 50 79 l32 75 105 3 105 3 33 -81 c19 -46 38 -80
46 -80 8 0 14 3 14 7 0 4 -41 105 -92 225 -56 134 -97 218 -105 218 -8 0 -20
-15 -28 -32z m79 -131 l45 -107 -94 0 c-52 0 -95 1 -95 3 0 6 72 182 82 200 5
10 11 17 14 15 2 -3 24 -52 48 -111z"/>
<path d="M3188 1240 c-109 -58 -150 -197 -90 -311 53 -103 160 -145 260 -103
42 17 92 61 92 81 0 21 -20 15 -41 -11 -73 -92 -227 -67 -283 46 -68 136 11
288 149 288 56 0 108 -23 130 -57 12 -18 20 -22 27 -15 16 16 -15 58 -62 82
-51 26 -132 26 -182 0z"/>
<path d="M3860 1245 c0 -12 16 -15 85 -15 l85 0 0 -210 c0 -180 2 -210 15
-210 13 0 15 30 15 210 l0 210 80 0 c64 0 80 3 80 15 0 13 -27 15 -180 15
-153 0 -180 -2 -180 -15z"/>
<path d="M4745 1243 c-48 -25 -76 -55 -101 -108 -70 -148 29 -325 182 -325 63
0 129 33 164 82 110 151 11 369 -166 368 -27 -1 -62 -8 -79 -17z m154 -27 c46
-24 88 -80 101 -134 17 -73 -5 -146 -60 -196 -46 -41 -74 -50 -136 -43 -82 9
-142 79 -152 179 -8 79 48 175 118 201 29 11 101 7 129 -7z"/>
<path d="M5510 1035 c0 -193 2 -225 15 -225 12 0 15 16 15 85 l0 85 74 0 73 0
53 -85 c36 -58 59 -85 72 -85 16 0 14 7 -18 58 -20 31 -43 66 -50 77 -20 28
-17 40 11 53 61 28 85 134 45 200 -29 48 -72 62 -190 62 l-100 0 0 -225z m243
171 c48 -45 49 -133 2 -173 -23 -20 -37 -23 -121 -23 l-94 0 0 110 0 110 94 0
c85 0 95 -2 119 -24z"/>
<path d="M6300 1035 c0 -193 2 -225 15 -225 13 0 15 32 15 225 0 193 -2 225
-15 225 -13 0 -15 -32 -15 -225z"/>
<path d="M6830 1035 c0 -193 2 -225 15 -225 13 0 15 28 15 196 l0 195 153
-193 c84 -106 160 -194 170 -196 16 -3 17 14 17 222 0 193 -2 226 -15 226 -12
0 -15 -31 -17 -196 l-3 -196 -155 196 c-85 108 -161 196 -167 196 -10 0 -13
-51 -13 -225z"/>
<path d="M7795 1245 c-115 -40 -168 -194 -109 -314 61 -121 206 -157 304 -75
l30 26 0 -36 c0 -25 4 -36 15 -36 12 0 15 18 15 105 l0 105 -65 0 c-37 0 -65
-4 -65 -10 0 -5 23 -10 51 -10 l50 0 -3 -47 c-3 -45 -6 -50 -52 -80 -94 -64
-200 -33 -252 72 -23 47 -26 64 -21 111 10 95 69 162 152 171 57 7 109 -11
140 -49 20 -23 29 -28 38 -19 8 8 2 20 -23 46 -52 54 -125 68 -205 40z"/>
</g>
</svg>
